<mxfile host="Electron" modified="2024-02-18T19:27:36.495Z" agent="Mozilla/5.0 (Windows NT 10.0; Win64; x64) AppleWebKit/537.36 (KHTML, like Gecko) draw.io/22.1.2 Chrome/114.0.5735.289 Electron/25.9.4 Safari/537.36" etag="5_Io8yvE-m_7hP4WAlvz" version="22.1.2" type="device">
  <diagram name="Page-1" id="5f0bae14-7c28-e335-631c-24af17079c00">
    <mxGraphModel dx="1178" dy="790" grid="1" gridSize="10" guides="1" tooltips="1" connect="1" arrows="1" fold="1" page="1" pageScale="1" pageWidth="1100" pageHeight="850" background="none" math="0" shadow="0">
      <root>
        <mxCell id="0" />
        <mxCell id="1" parent="0" />
        <mxCell id="EtwHlYc7nydxbufBa8ut-38" value="" style="group" parent="1" vertex="1" connectable="0">
          <mxGeometry x="540" y="50" width="330" height="220" as="geometry" />
        </mxCell>
        <mxCell id="39150e848f15840c-2" value="ПК отдела печати" style="verticalAlign=top;align=left;spacingTop=8;spacingLeft=2;spacingRight=12;shape=cube;size=10;direction=south;fontStyle=4;html=1;rounded=0;shadow=0;comic=0;labelBackgroundColor=none;strokeWidth=1;fontFamily=Verdana;fontSize=12" parent="EtwHlYc7nydxbufBa8ut-38" vertex="1">
          <mxGeometry width="330" height="220" as="geometry" />
        </mxCell>
        <mxCell id="39150e848f15840c-7" value="ОС" style="shape=component;align=left;spacingLeft=36;rounded=0;shadow=0;comic=0;labelBackgroundColor=none;strokeWidth=1;fontFamily=Verdana;fontSize=12;html=1;" parent="EtwHlYc7nydxbufBa8ut-38" vertex="1">
          <mxGeometry x="30" y="52.5" width="120" height="60" as="geometry" />
        </mxCell>
        <mxCell id="39150e848f15840c-8" value="Принтер" style="html=1;rounded=0;shadow=0;comic=0;labelBackgroundColor=none;strokeWidth=1;fontFamily=Verdana;fontSize=12;align=center;" parent="EtwHlYc7nydxbufBa8ut-38" vertex="1">
          <mxGeometry x="190" y="57.5" width="110" height="50" as="geometry" />
        </mxCell>
        <mxCell id="39150e848f15840c-13" style="edgeStyle=elbowEdgeStyle;rounded=0;html=1;labelBackgroundColor=none;startArrow=none;startFill=0;startSize=8;endArrow=none;endFill=0;endSize=16;fontFamily=Verdana;fontSize=12;" parent="EtwHlYc7nydxbufBa8ut-38" target="39150e848f15840c-7" edge="1">
          <mxGeometry relative="1" as="geometry">
            <mxPoint x="100" y="147.5" as="sourcePoint" />
          </mxGeometry>
        </mxCell>
        <mxCell id="39150e848f15840c-16" style="edgeStyle=orthogonalEdgeStyle;rounded=0;html=1;dashed=1;labelBackgroundColor=none;startArrow=none;startFill=0;startSize=8;endArrow=open;endFill=0;endSize=16;fontFamily=Verdana;fontSize=12;" parent="EtwHlYc7nydxbufBa8ut-38" source="39150e848f15840c-7" target="39150e848f15840c-8" edge="1">
          <mxGeometry relative="1" as="geometry" />
        </mxCell>
        <mxCell id="EtwHlYc7nydxbufBa8ut-28" value="&lt;div&gt;Программа &lt;br&gt;&lt;/div&gt;&lt;div&gt;печати&lt;br&gt;&lt;/div&gt;" style="shape=component;align=left;spacingLeft=36;rounded=0;shadow=0;comic=0;labelBackgroundColor=none;strokeWidth=1;fontFamily=Verdana;fontSize=12;html=1;" parent="EtwHlYc7nydxbufBa8ut-38" vertex="1">
          <mxGeometry x="30" y="140" width="120" height="60" as="geometry" />
        </mxCell>
        <mxCell id="EtwHlYc7nydxbufBa8ut-37" value="" style="group" parent="1" vertex="1" connectable="0">
          <mxGeometry x="50" y="20" width="330" height="220" as="geometry" />
        </mxCell>
        <mxCell id="39150e848f15840c-1" value="Сервер" style="verticalAlign=top;align=left;spacingTop=8;spacingLeft=2;spacingRight=12;shape=cube;size=10;direction=south;fontStyle=4;html=1;rounded=0;shadow=0;comic=0;labelBackgroundColor=none;strokeWidth=1;fontFamily=Verdana;fontSize=12;movable=1;resizable=1;rotatable=1;deletable=1;editable=1;locked=0;connectable=1;" parent="EtwHlYc7nydxbufBa8ut-37" vertex="1">
          <mxGeometry width="330" height="220" as="geometry" />
        </mxCell>
        <mxCell id="39150e848f15840c-5" value="ORACLE DATBASE" style="shape=component;align=left;spacingLeft=36;rounded=0;shadow=0;comic=0;labelBackgroundColor=none;strokeWidth=1;fontFamily=Verdana;fontSize=12;html=1;movable=1;resizable=1;rotatable=1;deletable=1;editable=1;locked=0;connectable=1;" parent="EtwHlYc7nydxbufBa8ut-37" vertex="1">
          <mxGeometry x="50" y="20" width="190" height="60" as="geometry" />
        </mxCell>
        <mxCell id="EtwHlYc7nydxbufBa8ut-18" value="Папка обмена" style="shape=component;align=left;spacingLeft=36;rounded=0;shadow=0;comic=0;labelBackgroundColor=none;strokeWidth=1;fontFamily=Verdana;fontSize=12;html=1;movable=1;resizable=1;rotatable=1;deletable=1;editable=1;locked=0;connectable=1;" parent="EtwHlYc7nydxbufBa8ut-37" vertex="1">
          <mxGeometry x="50" y="130" width="190" height="60" as="geometry" />
        </mxCell>
        <mxCell id="EtwHlYc7nydxbufBa8ut-36" value="" style="group" parent="1" vertex="1" connectable="0">
          <mxGeometry x="80" y="330" width="260" height="190" as="geometry" />
        </mxCell>
        <mxCell id="39150e848f15840c-3" value="Клиентский ПК" style="verticalAlign=top;align=left;spacingTop=8;spacingLeft=2;spacingRight=12;shape=cube;size=10;direction=south;fontStyle=4;html=1;rounded=0;shadow=0;comic=0;labelBackgroundColor=none;strokeWidth=1;fontFamily=Verdana;fontSize=12" parent="EtwHlYc7nydxbufBa8ut-36" vertex="1">
          <mxGeometry width="260" height="190" as="geometry" />
        </mxCell>
        <mxCell id="39150e848f15840c-10" value="&lt;div&gt;Программа&lt;/div&gt;&lt;div&gt;заказа&lt;/div&gt;" style="shape=component;align=left;spacingLeft=36;rounded=0;shadow=0;comic=0;labelBackgroundColor=none;strokeWidth=1;fontFamily=Verdana;fontSize=12;html=1;" parent="EtwHlYc7nydxbufBa8ut-36" vertex="1">
          <mxGeometry x="100" y="29" width="120" height="53" as="geometry" />
        </mxCell>
        <mxCell id="EtwHlYc7nydxbufBa8ut-31" value="&lt;div&gt;Локальная&lt;/div&gt;&lt;div&gt;СУБД&lt;/div&gt;" style="shape=component;align=left;spacingLeft=36;rounded=0;shadow=0;comic=0;labelBackgroundColor=none;strokeWidth=1;fontFamily=Verdana;fontSize=12;html=1;" parent="EtwHlYc7nydxbufBa8ut-36" vertex="1">
          <mxGeometry x="100" y="120" width="120" height="53" as="geometry" />
        </mxCell>
        <mxCell id="EtwHlYc7nydxbufBa8ut-33" style="edgeStyle=orthogonalEdgeStyle;rounded=0;orthogonalLoop=1;jettySize=auto;html=1;exitX=0.5;exitY=1;exitDx=0;exitDy=0;entryX=0.5;entryY=0;entryDx=0;entryDy=0;" parent="EtwHlYc7nydxbufBa8ut-36" source="39150e848f15840c-10" target="EtwHlYc7nydxbufBa8ut-31" edge="1">
          <mxGeometry relative="1" as="geometry" />
        </mxCell>
        <mxCell id="39150e848f15840c-12" style="edgeStyle=none;rounded=0;html=1;dashed=1;labelBackgroundColor=none;startArrow=none;startFill=0;startSize=8;endArrow=open;endFill=0;endSize=16;fontFamily=Verdana;fontSize=12;entryX=0.895;entryY=0.967;entryDx=0;entryDy=0;exitX=0.75;exitY=0;exitDx=0;exitDy=0;entryPerimeter=0;" parent="1" source="39150e848f15840c-10" target="EtwHlYc7nydxbufBa8ut-18" edge="1">
          <mxGeometry relative="1" as="geometry">
            <mxPoint x="727" y="187" as="targetPoint" />
          </mxGeometry>
        </mxCell>
        <mxCell id="EtwHlYc7nydxbufBa8ut-13" value="Ответ" style="text;html=1;align=center;verticalAlign=middle;resizable=0;points=[];autosize=1;strokeColor=none;fillColor=none;" parent="1" vertex="1">
          <mxGeometry x="390" y="160" width="60" height="30" as="geometry" />
        </mxCell>
        <mxCell id="EtwHlYc7nydxbufBa8ut-14" value="Ответ" style="text;html=1;align=center;verticalAlign=middle;resizable=0;points=[];autosize=1;strokeColor=none;fillColor=none;" parent="1" vertex="1">
          <mxGeometry x="160" y="260" width="60" height="30" as="geometry" />
        </mxCell>
        <mxCell id="EtwHlYc7nydxbufBa8ut-29" style="edgeStyle=none;rounded=0;html=1;dashed=1;labelBackgroundColor=none;startArrow=none;startFill=0;startSize=8;endArrow=open;endFill=0;endSize=16;fontFamily=Verdana;fontSize=12;entryX=1;entryY=0.5;entryDx=0;entryDy=0;exitX=0.125;exitY=0.017;exitDx=0;exitDy=0;exitPerimeter=0;" parent="1" source="EtwHlYc7nydxbufBa8ut-28" target="39150e848f15840c-5" edge="1">
          <mxGeometry relative="1" as="geometry">
            <mxPoint x="689" y="380" as="sourcePoint" />
            <mxPoint x="737" y="197" as="targetPoint" />
          </mxGeometry>
        </mxCell>
        <mxCell id="EtwHlYc7nydxbufBa8ut-30" style="edgeStyle=none;rounded=0;html=1;dashed=1;labelBackgroundColor=none;startArrow=none;startFill=0;startSize=8;endArrow=open;endFill=0;endSize=16;fontFamily=Verdana;fontSize=12;entryX=1;entryY=0.25;entryDx=0;entryDy=0;exitX=0;exitY=0.3;exitDx=0;exitDy=0;" parent="1" source="EtwHlYc7nydxbufBa8ut-28" target="EtwHlYc7nydxbufBa8ut-18" edge="1">
          <mxGeometry relative="1" as="geometry">
            <mxPoint x="560" y="170" as="sourcePoint" />
            <mxPoint x="290" y="178" as="targetPoint" />
          </mxGeometry>
        </mxCell>
        <mxCell id="EtwHlYc7nydxbufBa8ut-34" style="edgeStyle=none;rounded=0;html=1;dashed=1;labelBackgroundColor=none;startArrow=none;startFill=0;startSize=8;endArrow=open;endFill=0;endSize=16;fontFamily=Verdana;fontSize=12;exitX=0.632;exitY=1;exitDx=0;exitDy=0;exitPerimeter=0;entryX=0.317;entryY=0;entryDx=0;entryDy=0;entryPerimeter=0;" parent="1" source="EtwHlYc7nydxbufBa8ut-18" target="39150e848f15840c-10" edge="1">
          <mxGeometry relative="1" as="geometry">
            <mxPoint x="720" y="409" as="sourcePoint" />
            <mxPoint x="570" y="300" as="targetPoint" />
          </mxGeometry>
        </mxCell>
        <mxCell id="EtwHlYc7nydxbufBa8ut-35" value="Заказ" style="text;html=1;align=center;verticalAlign=middle;resizable=0;points=[];autosize=1;strokeColor=none;fillColor=none;" parent="1" vertex="1">
          <mxGeometry x="280" y="270" width="60" height="30" as="geometry" />
        </mxCell>
        <mxCell id="EtwHlYc7nydxbufBa8ut-39" value="Заказ" style="text;html=1;align=center;verticalAlign=middle;resizable=0;points=[];autosize=1;strokeColor=none;fillColor=none;" parent="1" vertex="1">
          <mxGeometry x="390" y="190" width="60" height="30" as="geometry" />
        </mxCell>
        <mxCell id="EtwHlYc7nydxbufBa8ut-40" value="&lt;div&gt;Обмен&lt;/div&gt;" style="text;html=1;align=center;verticalAlign=middle;resizable=0;points=[];autosize=1;strokeColor=none;fillColor=none;" parent="1" vertex="1">
          <mxGeometry x="470" y="110" width="60" height="30" as="geometry" />
        </mxCell>
        <mxCell id="EtwHlYc7nydxbufBa8ut-41" style="edgeStyle=none;rounded=0;html=1;dashed=1;labelBackgroundColor=none;startArrow=none;startFill=0;startSize=8;endArrow=open;endFill=0;endSize=16;fontFamily=Verdana;fontSize=12;entryX=0.008;entryY=0.817;entryDx=0;entryDy=0;entryPerimeter=0;exitX=1;exitY=0.75;exitDx=0;exitDy=0;" parent="1" source="EtwHlYc7nydxbufBa8ut-18" target="EtwHlYc7nydxbufBa8ut-28" edge="1">
          <mxGeometry relative="1" as="geometry">
            <mxPoint x="360" y="310" as="sourcePoint" />
            <mxPoint x="415" y="368" as="targetPoint" />
          </mxGeometry>
        </mxCell>
        <mxCell id="EtwHlYc7nydxbufBa8ut-42" style="edgeStyle=none;rounded=0;html=1;dashed=1;labelBackgroundColor=none;startArrow=none;startFill=0;startSize=8;endArrow=open;endFill=0;endSize=16;fontFamily=Verdana;fontSize=12;entryX=0.25;entryY=0;entryDx=0;entryDy=0;exitX=1;exitY=0.25;exitDx=0;exitDy=0;" parent="1" source="39150e848f15840c-5" target="EtwHlYc7nydxbufBa8ut-28" edge="1">
          <mxGeometry relative="1" as="geometry">
            <mxPoint x="440" y="30" as="sourcePoint" />
            <mxPoint x="300" y="80" as="targetPoint" />
          </mxGeometry>
        </mxCell>
      </root>
    </mxGraphModel>
  </diagram>
</mxfile>
